HIERARCHY
ROOT Hips
{
	OFFSET 0.00 0.00 0.00
	CHANNELS 6 Xposition Yposition Zposition Yrotation Xrotation Zrotation
	JOINT LHipJoint
	{
		OFFSET	0.0000	0.0000	0.0000
		CHANNELS 3 Yrotation Xrotation Zrotation
		JOINT LeftUpLeg
		{
			OFFSET	1.0138	-0.0809	-0.0827
			CHANNELS 3 Yrotation Xrotation Zrotation
			JOINT LeftLeg
			{
				OFFSET	0.4110	-3.9095	0.3245
				CHANNELS 3 Yrotation Xrotation Zrotation
				JOINT LeftFoot
				{
					OFFSET	0.3810	-4.0555	-0.1470
					CHANNELS 3 Yrotation Xrotation Zrotation
					JOINT LeftToeBase
					{
						OFFSET	0.1396	-0.4462	1.3079
						CHANNELS 3 Yrotation Xrotation Zrotation
						End Site
						{
							OFFSET 0.0161 -0.0248 0.1809
						}
					}
				}
			}
		}
	}
	JOINT LowerBack
	{
		OFFSET	0.0000	0.7977	-0.3873
		CHANNELS 3 Yrotation Xrotation Zrotation
		JOINT Spine
		{
			OFFSET	0.0000	1.4131	0.1715
			CHANNELS 3 Yrotation Xrotation Zrotation
			JOINT Spine1
			{
				OFFSET	0.0000	1.4392	-0.1032
				CHANNELS 3 Yrotation Xrotation Zrotation
				JOINT LeftShoulder
				{
					OFFSET	0.2274	1.0382	0.4032
					CHANNELS 3 Yrotation Xrotation Zrotation
					JOINT LeftArm
					{
						OFFSET	1.4730	-0.2267	-0.0231
						CHANNELS 3 Yrotation Xrotation Zrotation
						JOINT LeftForeArm
						{
							OFFSET	1.6131	-1.8059	0.0081
							CHANNELS 3 Yrotation Xrotation Zrotation
							JOINT LeftHand
							{
								OFFSET	1.2197	-1.2423	1.6317
								CHANNELS 3 Yrotation Xrotation Zrotation
								JOINT LThumb
								{
									OFFSET	0.0109	-0.0753	0.4387
									CHANNELS 3 Yrotation Xrotation Zrotation
									End Site
									{
										OFFSET -0.2090 -0.0868 0.2097
									}
								}
								JOINT LeftFingerBase
								{
									OFFSET	0.1071	-0.1567	0.2607
									CHANNELS 3 Yrotation Xrotation Zrotation
									JOINT LeftHandFinger1
									{
										OFFSET	0.1706	-0.2492	0.6830
										CHANNELS 3 Yrotation Xrotation Zrotation
										End Site
										{
											OFFSET 0.0335 -0.1507 0.2071
										}
									}
								}
							}
						}
					}
				}
				JOINT Neck
				{
					OFFSET	0.0000	1.7498	0.2381
					CHANNELS 3 Yrotation Xrotation Zrotation
					JOINT Neck1
					{
						OFFSET	0.0000	0.5043	0.1959
						CHANNELS 3 Yrotation Xrotation Zrotation
						JOINT Head
						{
							OFFSET	0.0000	0.5044	0.1959
							CHANNELS 3 Yrotation Xrotation Zrotation
							End Site
							{
								OFFSET 0.0000 1.4798 -0.0693
							}
						}
					}
				}
				JOINT RightShoulder
				{
					OFFSET	-0.2274	1.0382	0.4032
					CHANNELS 3 Yrotation Xrotation Zrotation
					JOINT RightArm
					{
						OFFSET	-1.4730	-0.2267	-0.0231
						CHANNELS 3 Yrotation Xrotation Zrotation
						JOINT RightForeArm
						{
							OFFSET	-1.6131	-1.8059	0.0081
							CHANNELS 3 Yrotation Xrotation Zrotation
							JOINT RightHand
							{
								OFFSET	-1.2197	-1.2423	1.6317
								CHANNELS 3 Yrotation Xrotation Zrotation
								JOINT RThumb
								{
									OFFSET	-0.0109	-0.0753	0.4387
									CHANNELS 3 Yrotation Xrotation Zrotation
									End Site
									{
										OFFSET 0.2090 -0.0868 0.2097
									}
								}
								JOINT RightFingerBase
								{
									OFFSET	-0.1071	-0.1567	0.2607
									CHANNELS 3 Yrotation Xrotation Zrotation
									JOINT RightHandFinger1
									{
										OFFSET	-0.1706	-0.2492	0.6830
										CHANNELS 3 Yrotation Xrotation Zrotation
										End Site
										{
											OFFSET -0.0335 -0.1507 0.2071
										}
									}
								}
							}
						}
					}
				}
			}
		}
	}
	JOINT RHipJoint
	{
		OFFSET	0.0000	0.0000	0.0000
		CHANNELS 3 Yrotation Xrotation Zrotation
		JOINT RightUpLeg
		{
			OFFSET	-1.0138	-0.0809	-0.0827
			CHANNELS 3 Yrotation Xrotation Zrotation
			JOINT RightLeg
			{
				OFFSET	-0.4110	-3.9095	0.3245
				CHANNELS 3 Yrotation Xrotation Zrotation
				JOINT RightFoot
				{
					OFFSET	-0.3810	-4.0555	-0.1470
					CHANNELS 3 Yrotation Xrotation Zrotation
					JOINT RightToeBase
					{
						OFFSET	-0.1396	-0.4462	1.3079
						CHANNELS 3 Yrotation Xrotation Zrotation
						End Site
						{
							OFFSET -0.0161 -0.0248 0.1809
						}
					}
				}
			}
		}
	}
}
MOTION
Frames: 14
Frame Time: 0.0333333
0.1410 8.5720 0.0957 4.6087 -8.0795 -0.6286 0.0000 -0.0000 0.0000 7.5750 -15.2508 -2.9126 -2.6844 54.4254 -2.0657 0.2468 -3.9619 -1.6775 -0.0000 -1.9110 -0.0000 0.0000 -0.0000 0.0000 -0.6483 6.2777 1.6100 -1.1021 12.5520 1.9882 -0.0611 0.7111 -4.3958 -21.8525 -11.2973 -24.0194 -48.0705 -38.8887 16.3621 17.7066 1.8487 -7.5373 39.5550 -5.6234 14.7958 9.4167 14.1178 1.0313 -76.0607 19.3266 -64.6120 0.3218 1.7276 0.1730 0.3164 1.7293 0.1648 3.4146 9.8006 2.8726 14.2994 -0.3227 9.6959 11.0779 -5.6256 17.7962 58.8843 -42.9376 -23.5851 -26.0520 4.9243 3.0730 -36.0410 -6.4456 -9.8549 -10.8450 10.6298 -2.6138 80.0061 16.5079 67.2779 0.0000 -0.0000 0.0000 -11.7405 -0.4026 8.5246 -0.3681 20.1817 -3.0874 0.9322 -11.4924 -6.6779 0.0000 -3.9076 -0.0000 
0.1084 8.5910 0.0675 3.8629 -7.5559 -0.1345 0.0000 -0.0000 0.0000 7.6919 -17.6421 -4.0897 0.9160 48.1573 0.2838 0.4310 -5.2512 -4.1268 -0.0000 -1.1164 -0.0000 0.0000 -0.0000 0.0000 -0.4954 6.2197 1.4574 -0.8925 12.4364 1.7362 -0.1094 0.7098 -4.4110 -21.1297 -10.6194 -23.2933 -46.9444 -38.3756 15.6452 15.0784 -0.5715 -10.1871 39.8797 -5.6196 14.6071 9.4167 14.1178 1.0313 -76.0607 19.3266 -64.6120 0.3819 1.6405 0.0400 0.3744 1.6424 0.0309 3.8374 9.5105 2.4007 14.3832 -0.3028 9.5059 11.8121 -4.3717 20.2525 59.2846 -43.0591 -23.8624 -22.5075 3.2125 -2.2687 -35.4360 -6.8693 -9.1940 -10.8450 10.6298 -2.6138 80.0061 16.5079 67.2779 0.0000 -0.0000 0.0000 -12.0415 1.2853 8.0660 0.7222 19.2769 -2.7270 1.1094 -12.7249 -6.9693 0.0000 -3.8792 -0.0000 
0.0873 8.6017 0.0402 3.0457 -7.0422 0.1666 0.0000 -0.0000 0.0000 7.6834 -19.1825 -4.8953 4.6060 40.0496 2.3350 0.5230 -5.4449 -5.0984 -0.0000 -1.7756 0.0000 0.0000 -0.0000 0.0000 -0.3685 6.2184 1.3733 -0.7091 12.4356 1.7446 -0.1564 0.7142 -4.6247 -20.5447 -11.1723 -22.7140 -45.1952 -37.5415 14.5472 12.5260 -1.8903 -12.7344 40.5917 -5.6106 14.1902 9.4167 14.1178 1.0313 -76.0607 19.3266 -64.6120 0.4415 1.5208 -0.0891 0.4313 1.5232 -0.0996 4.3338 9.1556 1.8512 14.5884 -0.3019 9.3257 12.3349 -3.9866 21.7354 59.2042 -43.0349 -23.8067 -20.3633 1.8458 -6.6332 -34.3286 -7.6775 -7.9749 -10.8450 10.6298 -2.6137 80.0061 16.5079 67.2779 0.0000 -0.0000 0.0000 -12.3077 3.0701 7.6079 1.9199 18.2318 -2.2701 1.2874 -13.8644 -7.2251 -0.0000 -3.9228 0.0000 
0.0735 8.6063 0.0201 2.1083 -6.6343 0.3846 0.0000 -0.0000 0.0000 7.4017 -19.6331 -5.4333 5.3843 30.7908 2.1764 0.4383 -4.7582 -4.0842 -0.0000 -2.1780 0.0000 0.0000 -0.0000 0.0000 -0.2736 6.2788 1.2526 -0.5552 12.5582 1.7769 -0.1465 0.7234 -4.8819 -19.9633 -11.8173 -22.6358 -44.6815 -37.2878 14.2285 11.3869 -1.8644 -13.5510 41.3007 -5.6009 13.7705 9.4167 14.1178 1.0313 -76.0607 19.3266 -64.6120 0.5018 1.3929 -0.1733 0.4901 1.3957 -0.1857 4.9167 8.8597 1.4448 14.9032 -0.3282 9.3368 12.1993 -4.4947 22.2433 58.8381 -42.9235 -23.5531 -19.5965 2.1428 -7.3321 -33.7412 -8.1239 -7.3228 -10.8450 10.6298 -2.6138 80.0061 16.5079 67.2779 0.0000 -0.0000 0.0000 -12.5709 5.1138 7.1015 3.3166 16.9641 -1.8242 1.4538 -14.9062 -7.4387 0.0000 -4.0377 0.0000 
0.0690 8.6073 0.0099 1.1120 -6.1575 0.4461 0.0000 -0.0000 0.0000 6.7880 -19.6585 -5.7925 5.2291 21.1958 1.9050 0.3947 -3.8623 -3.3441 -0.0000 -2.0683 -0.0000 0.0000 -0.0000 0.0000 -0.1670 6.2762 1.1524 -0.3365 12.5539 1.9024 -0.1634 0.7244 -4.9853 -19.4564 -12.1193 -23.0176 -45.4681 -37.6746 14.7172 11.9994 -0.6035 -13.0760 41.6219 -5.5963 13.5788 9.4167 14.1178 1.0313 -76.0607 19.3266 -64.6120 0.5343 1.2819 -0.2235 0.5215 1.2850 -0.2373 5.3479 8.6632 1.1607 15.0635 -0.3522 9.4459 11.8460 -5.2652 22.0451 58.6506 -42.8658 -23.4234 -20.5905 3.5613 -5.3890 -33.4984 -7.3273 -8.5520 -10.8450 10.6298 -2.6138 80.0061 16.5079 67.2779 0.0000 -0.0000 0.0000 -12.7220 7.4729 6.6718 4.6803 15.0491 -1.6004 1.5689 -15.6763 -7.4432 -0.0000 -4.0956 -0.0000 
0.0737 8.6015 0.0022 -0.0419 -5.6271 0.3570 0.0000 -0.0000 0.0000 5.7029 -19.9010 -6.1211 6.3683 12.3284 2.9719 0.4400 -3.6782 -3.7997 0.0000 -2.1259 -0.0000 0.0000 -0.0000 0.0000 0.0226 6.1801 1.1014 0.0808 12.3594 2.1620 -0.2236 0.7096 -4.9054 -19.1368 -12.4747 -23.5840 -46.7073 -38.2652 15.4952 12.8117 1.4832 -12.3447 40.7580 -5.7587 13.4530 9.4167 14.1178 1.0313 -76.0607 19.3266 -64.6120 0.5310 1.2073 -0.2675 0.5171 1.2109 -0.2816 5.5572 8.5568 0.9230 15.0796 -0.3524 9.4360 11.5904 -5.6372 21.6570 58.9149 -42.9470 -23.6063 -22.4910 4.0856 -3.1629 -33.0573 -5.6318 -11.0250 -10.8450 10.6298 -2.6138 80.0061 16.5079 67.2779 0.0000 -0.0000 0.0000 -12.8121 9.9979 6.3061 6.2493 12.7112 -1.5475 1.6372 -16.1993 -7.3099 0.0000 -4.3993 -0.0000 
0.0809 8.5783 -0.0156 -1.4240 -5.1674 0.1817 0.0000 -0.0000 0.0000 4.5242 -20.7760 -6.3256 7.7046 6.3203 4.3452 0.4016 -5.6463 -3.7301 -0.0000 -2.2648 0.0000 0.0000 -0.0000 0.0000 0.3245 6.0222 1.1098 0.7230 12.0358 2.4364 -0.2341 0.7054 -4.7967 -19.1334 -12.3631 -24.0459 -47.3415 -38.5586 15.8971 12.5584 1.5448 -12.1599 38.6953 -6.1876 13.1621 9.4167 14.1178 1.0313 -76.0607 19.3266 -64.6120 0.5039 1.1709 -0.3158 0.4888 1.1749 -0.3294 5.5860 8.5479 0.7434 15.1523 -0.3366 9.2257 11.3720 -5.3434 21.4377 59.7954 -43.2114 -24.2171 -22.6162 4.0300 -2.7838 -32.7522 -4.1734 -13.0165 -10.8450 10.6298 -2.6138 80.0061 16.5079 67.2779 0.0000 -0.0000 0.0000 -12.9906 12.0831 5.9283 8.1752 11.2355 -1.4645 1.7460 -17.0174 -7.2749 0.0000 -4.9604 -0.0000 
0.0896 8.5345 -0.0415 -2.5422 -4.7266 -0.1446 0.0000 -0.0000 0.0000 3.9859 -22.5847 -6.2032 7.5702 6.2289 4.7182 0.2406 -8.4098 -2.7549 0.0000 -2.0280 0.0000 0.0000 -0.0000 0.0000 0.5308 5.8250 1.2375 1.1164 11.6369 2.6071 -0.1841 0.7171 -4.7579 -19.1655 -11.3917 -24.2823 -48.0385 -38.8744 16.3416 12.1623 -0.1788 -11.8189 36.2291 -6.7758 12.8349 9.4167 14.1178 1.0313 -76.0607 19.3266 -64.6120 0.4877 1.1275 -0.3562 0.4721 1.1317 -0.3700 5.6025 8.5766 0.5822 15.2324 -0.3160 8.9665 11.6226 -4.6779 21.2019 60.8314 -43.5108 -24.9395 -21.1936 4.0871 -3.4254 -32.7094 -3.9486 -13.3235 -10.8450 10.6298 -2.6137 80.0061 16.5079 67.2779 0.0000 -0.0000 0.0000 -13.2093 13.7896 5.6617 8.6240 10.3972 -1.7428 2.7692 -18.1619 -7.0488 -0.0000 -5.0243 0.0000 
0.1022 8.4735 -0.0579 -3.0865 -4.6000 -0.3451 0.0000 -0.0000 0.0000 4.0061 -23.5786 -6.2843 6.6565 9.4908 4.1755 0.3358 -7.2805 -3.2288 0.0000 -2.1474 -0.0000 0.0000 -0.0000 0.0000 0.5315 5.7747 1.2820 1.0553 11.5405 2.3944 -0.1833 0.7192 -4.7622 -19.1641 -10.2384 -24.0176 -49.6692 -39.5859 17.3928 12.3747 -1.5752 -10.6091 34.1604 -7.3318 12.5807 9.4167 14.1178 1.0313 -76.0607 19.3266 -64.6120 0.4877 1.0250 -0.3358 0.4738 1.0289 -0.3511 5.6484 8.4356 0.4982 15.2238 -0.3057 8.8750 12.2958 -4.1385 20.9797 61.6390 -43.7356 -25.5053 -19.5587 3.8733 -3.4191 -32.7248 -4.0872 -13.2164 -10.8450 10.6298 -2.6138 80.0061 16.5079 67.2779 0.0000 -0.0000 0.0000 -13.6742 15.5924 5.1546 8.6737 10.1571 -2.0760 3.6001 -19.8237 -6.6938 -0.0000 -5.1529 -0.0000 
0.1143 8.4186 -0.0606 -3.9871 -4.9155 -0.2865 0.0000 -0.0000 0.0000 4.3467 -22.5248 -6.6390 4.0288 11.9746 2.8602 0.3345 -4.6176 -2.4825 -0.0000 -2.7998 0.0000 0.0000 -0.0000 0.0000 0.7148 5.8387 1.1857 1.3752 11.6719 1.9362 -0.1717 0.7187 -4.7954 -19.4247 -9.3942 -23.3294 -50.0341 -39.7400 17.6300 12.1458 -3.9276 -10.5375 33.2925 -7.5819 12.4802 9.4167 14.1178 1.0313 -76.0607 19.3266 -64.6120 0.4681 0.9611 -0.3041 0.4564 0.9646 -0.3199 5.6147 8.2586 0.5429 15.3182 -0.3163 8.9081 12.6093 -3.5932 21.3419 62.1405 -43.8715 -25.8576 -17.1847 3.7367 -4.6707 -32.7541 -4.3407 -13.0194 -10.8450 10.6298 -2.6138 80.0061 16.5079 67.2779 0.0000 -0.0000 0.0000 -14.5368 18.3765 4.1202 8.8075 8.7574 -2.7603 4.8357 -20.9389 -6.1437 -0.0000 -5.6928 -0.0000 
0.1320 8.3711 -0.0482 -5.7888 -5.1178 -0.1113 0.0000 -0.0000 0.0000 4.3995 -20.8777 -7.1204 1.9825 13.0085 2.3505 0.2097 -0.9929 1.2119 -0.0000 -3.5691 0.0000 0.0000 -0.0000 0.0000 1.1760 5.6508 1.0568 2.3037 11.2941 1.7439 0.0554 0.7346 -5.0192 -19.6455 -8.5214 -22.8676 -48.7184 -39.1756 16.7780 11.3719 -7.0233 -12.0506 33.5879 -7.2033 12.7693 9.4167 14.1178 1.0313 -76.0607 19.3266 -64.6120 0.4511 1.0398 -0.3769 0.4385 1.0436 -0.3920 5.6599 8.6296 0.4975 15.4842 -0.3273 8.8920 12.7329 -2.7404 22.2558 62.1260 -43.8676 -25.8474 -14.8242 4.2238 -7.2401 -32.7959 -4.6840 -12.7506 -10.8450 10.6298 -2.6138 80.0061 16.5079 67.2779 0.0000 -0.0000 0.0000 -15.3115 19.3185 2.7675 8.6645 10.3265 -3.2432 6.6727 -21.7472 -5.7418 0.0000 -6.5405 0.0000 
0.1633 8.3330 -0.0191 -7.3669 -5.0842 0.2648 0.0000 -0.0000 0.0000 3.9436 -19.6682 -7.8935 3.1484 13.8513 3.3529 0.4198 3.3374 4.2041 -0.0000 -2.3419 0.0000 0.0000 -0.0000 0.0000 1.3955 5.2492 0.7841 2.7374 10.4862 1.4750 0.3571 0.7574 -5.3190 -19.4907 -7.0689 -22.6900 -48.3616 -39.0183 16.5486 11.4421 -9.0469 -12.8900 34.3552 -6.2490 13.5080 9.4167 14.1178 1.0313 -76.0607 19.3266 -64.6120 0.4834 1.1635 -0.4568 0.4700 1.1677 -0.4720 5.9749 9.5349 0.2961 15.4606 -0.3230 8.8692 13.1399 -1.9496 23.2053 61.7161 -43.7567 -25.5593 -13.5292 5.3343 -8.2621 -32.8492 -5.0922 -12.4278 -10.8450 10.6298 -2.6138 80.0061 16.5079 67.2779 0.0000 -0.0000 0.0000 -15.9095 18.8333 1.2488 8.2582 14.0381 -3.5611 8.2671 -21.7910 -5.4716 0.0000 -8.1382 -0.0000 
0.2006 8.3153 -0.0069 -7.8025 -5.1535 0.9906 0.0000 -0.0000 0.0000 4.1095 -19.3797 -8.6529 4.3362 16.9719 3.2452 0.3920 3.0031 5.4281 -0.0000 -0.6565 0.0000 0.0000 -0.0000 0.0000 1.1003 5.0139 0.2252 2.0712 10.0259 0.4326 0.4438 0.7653 -5.4357 -19.1828 -5.6016 -22.2665 -48.6735 -39.1559 16.7491 11.9516 -10.6640 -13.1025 35.4176 -4.9929 14.5043 9.4167 14.1178 1.0313 -76.0607 19.3266 -64.6120 0.5592 1.2078 -0.3743 0.5497 1.2111 -0.3926 6.4413 10.0146 0.2954 15.3397 -0.3240 8.9680 13.6571 -1.6557 23.9136 61.0160 -43.5628 -25.0686 -12.4183 6.5278 -8.1838 -32.9122 -5.5406 -12.0692 -10.8450 10.6298 -2.6138 80.0061 16.5079 67.2779 0.0000 -0.0000 0.0000 -16.5610 18.3702 -0.2841 7.9086 17.6956 -3.9546 8.7482 -20.4589 -5.1416 -0.0000 -13.0945 0.0000 
0.2360 8.3091 -0.0134 -7.6980 -5.5533 2.1841 0.0000 -0.0000 0.0000 4.7253 -19.1024 -9.5622 4.5406 21.0911 2.1796 0.0967 -0.4406 5.2439 0.0000 -0.1441 0.0000 0.0000 -0.0000 0.0000 0.6438 5.1310 -0.6740 1.0348 10.2680 -1.3075 0.3369 0.7598 -5.4137 -19.1374 -5.0413 -21.1806 -49.2267 -39.3966 17.1060 12.5383 -11.5525 -13.2761 36.5785 -3.6994 15.5629 9.4167 14.1178 1.0313 -76.0607 19.3266 -64.6120 0.6173 1.1567 -0.1729 0.6148 1.1575 -0.1955 6.6531 9.7260 0.7700 15.2404 -0.3347 9.1462 13.9001 -2.0186 24.4166 60.3327 -43.3682 -24.5913 -11.3220 6.8930 -7.7128 -32.9823 -6.0046 -11.6933 -10.8450 10.6298 -2.6138 80.0061 16.5079 67.2779 0.0000 -0.0000 0.0000 -17.1703 16.8529 -2.2706 7.3720 23.3699 -3.7204 8.2445 -17.7739 -4.7083 -0.0000 -21.5848 0.0000 
